<?xml version="1.0" encoding="utf-8"?>
<!-- Generator: Adobe Illustrator 24.3.0, SVG Export Plug-In . SVG Version: 6.00 Build 0)  -->
<svg version="1.1" id="Layer_1" xmlns="http://www.w3.org/2000/svg" xmlns:xlink="http://www.w3.org/1999/xlink" x="0px" y="0px"
	 viewBox="0 0 841.89 595.28" style="enable-background:new 0 0 841.89 595.28;" xml:space="preserve">
<style type="text/css">
	.st0{fill:#2B3990;}
	.st1{fill:#BCBEC0;}
</style>
<path class="st0" d="M469.73,500.92c-4.01,1.23-8.03,1.93-12.04,1.4c5.73,2.93,12.35,4.47,19.86,4.47
	c53.06,0,129.84-77.36,171.49-172.79c0.79-1.81,1.55-3.6,2.3-5.4c-19.71,16.69-47.49,28.49-79.15,39.31
	C544.86,422.41,510.22,487.9,469.73,500.92z"/>
<path class="st1" d="M542.91,250.36c-17.56,23.59-28.3,40.27-37.57,59.39c-9.76,19.93-8.78,34.17,2.44,34.98
	c19.03,1.22,43.42-24.81,68.31-60.2c20.98-30.1,41.96-66.71,59.03-87.45c4.39-5.29,7.81-6.1,12.2-2.85
	c6.83,7.32,10.73,24.81-1.95,45.56c-14.64,23.59-44.4,72.4-64.89,111.86c36.69-16.47,64.74-38.61,84.2-60.23
	c22.12-74.83,8.59-130.2-36.3-130.2c-22.27,0-48.71,13.63-74.98,36.5C563.65,210.53,560.31,227.24,542.91,250.36z"/>
<path class="st1" d="M536.57,365.06c4.88-9.35,9.76-19.52,15.13-29.29c-15.13,13.02-33.67,23.59-53.18,22.37
	c-33.87-2.35-35.99-30.05-26.03-56.09c-5.6,10.35-10.82,21.03-15.59,31.94c-18.51,42.41-26.96,81.24-25.99,111.31
	c0.38-1.1,0.79-2.22,1.25-3.37C446.8,405.33,488.27,380.93,536.57,365.06z"/>
<path class="st0" d="M451.68,478.54c6.34,7.73,46.35-36.61,76.6-96.4C464.85,412.65,442.89,468.38,451.68,478.54z"/>
<path class="st0" d="M528.69,219.81c-1-2.25-2.74-2-3.99,0.25c-8.73,17.22-22.46,34.18-32.69,34.68c-8.48,0.5-8.23-10.23-2-24.2
	c5.99-13.23,18.47-31.94,23.95-43.17c5.99-12.48,3.99-23.21,0.25-27.7c-1.75-2.25-3.74-1.75-5.99,1.5
	c-2.75,3.99-5.74,9.23-8.98,15.22c0.5-9.73-4.49-17.97-15.22-17.97c-12.48,0-32.19,11.23-52.4,40.67
	c-6.76,9.86-10.79,19.87-12.37,28.89c-8.87,14.81-20.24,26.92-29.54,26.5c-10.48-0.5-13.23-15.97-4.99-34.18
	c9.48-20.96,23.7-45.17,33.44-61.88c6.24-1,13.97-1.75,19.46-1c3.74,0,4.74-1.75,2.99-4.74c-2-3.24-5.74-7.74-15.47-7.49
	c5.99-12.98,5.99-21.21,3.24-28.2c-1.25-2.99-3.74-3.24-5.99,0c-4.24,5.49-11.23,17.22-18.97,30.94c-6.74,0.75-13.72,1.25-20.71,1
	c-3.74-0.25-5.24,1.5-2.74,4.99c2,2.74,7.73,6.49,16.22,6.49c-10.73,19.71-21.21,40.67-26.45,53.15c-1.3,3.11-2.29,6.1-3.02,8.96
	c-10.94,15.6-27.97,32.64-47.14,31.71c-13.22-0.75-19.21-16.47-11.23-39.43c17.47,14.22,34.19,7.74,46.41-7.24
	c10.48-12.73,12.48-27.95,7.98-33.93c-3.99-5.49-8.49-9.23-14.72-12.98c-12.48-7.24-37.93,5.74-54.15,37.93
	c-4.33,8.6-6.71,17.13-7.28,25c-9.18,15.88-19.46,29.92-28.9,30.15c-8.98,0.25-12.48-11.23-5.49-25.45
	c6.24-12.48,18.47-28.95,22.96-40.17c4.99-12.48,2.99-27.2-5.99-27.45c-8.23-0.25-24.95,11.48-36.93,23.21
	c3.24-10.98-1.25-24.2-9.73-24.45c-8.98-0.25-27.7,14.47-38.68,27.2c3.74-9.98,4.49-19.71,0.25-26.7c-1.5-2.5-3.49-2.75-5.24,0
	c-15.72,23.46-33.94,58.64-39.18,74.36c-4.24,12.73-2.99,20.96,2.5,25.7c2.25,2,3.74,1,4.74-1.25
	c9.98-23.46,21.96-46.66,36.68-62.63c15.97-17.47,28.2-24.2,31.19-22.96c4.99,1.75-21.96,36.18-30.19,56.89
	c-7.24,17.96-3.74,27.7,0.5,31.44c2.25,2.5,4.24,1.75,5.74-1.25c10.48-23.46,22.71-47.41,43.42-68.12
	c16.22-16.22,24.7-18.96,26.7-18.21c3.74,1.25-18.47,29.2-27.7,49.91c-9.23,20.46-1.25,37.68,20.46,37.68
	c12.74,0,26.64-9.68,34.55-21.7c4.11,13.16,15.13,21.96,32.07,21.7c17.1-0.22,34.18-9.35,45.13-22.08
	c1.87,13.51,11.24,21.51,22,21.83c12.97,0.49,24.46-8.61,31.82-17.03c2.21,10.12,8.95,16.78,19.59,16.78
	c11.98,0,23.21-9.23,31.19-19.46c0,11.73,6.99,19.71,20.46,20.46c13.72,0.75,29.44-12.98,35.93-26.7
	C529.69,228.29,529.69,222.05,528.69,219.81z M312.6,205.08c11.73-23.7,32.44-38.68,37.68-34.43c3.49,2.75-2,15.72-9.98,26.2
	c-7.24,9.48-17.47,20.21-29.69,12.48C311.1,208.08,311.85,206.58,312.6,205.08z M441.6,252.74c-9.73-0.25-6.49-22.21,6.74-43.67
	c13.72-22.21,31.94-38.43,39.92-37.68c7.24,0.75,4.99,16.22-10.73,43.67C464.81,237.02,451.84,252.99,441.6,252.74z"/>
</svg>
